<svg width="30" height="30" viewBox="0 0 30 30" fill="none" xmlns="http://www.w3.org/2000/svg">
<path d="M27.6995 16.3359C27.5191 16.1552 27.2929 16.0269 27.0452 15.965C26.7974 15.9031 26.5375 15.9098 26.2933 15.9844C24.5872 16.4994 22.7733 16.5421 21.0449 16.1077C19.3165 15.6734 17.7382 14.7783 16.4783 13.5179C15.2184 12.2575 14.3239 10.6789 13.8902 8.95031C13.4565 7.22172 13.4998 5.40787 14.0156 3.70195C14.0908 3.45762 14.098 3.1974 14.0364 2.94928C13.9748 2.70116 13.8467 2.47453 13.6659 2.29375C13.4852 2.11298 13.2585 1.9849 13.0104 1.9233C12.7623 1.8617 12.5021 1.86891 12.2577 1.94414C9.6918 2.73281 7.44003 4.31081 5.82297 6.45352C4.40887 8.33308 3.54653 10.5695 3.33269 12.9119C3.11885 15.2543 3.56199 17.6099 4.61238 19.7144C5.66276 21.819 7.27884 23.5892 9.27927 24.8264C11.2797 26.0636 13.5853 26.7189 15.9374 26.7188C18.6835 26.7268 21.3565 25.8339 23.5464 24.177C25.688 22.5583 27.2643 20.3053 28.0511 17.7387C28.125 17.4949 28.1314 17.2357 28.0694 16.9887C28.0075 16.7416 27.8797 16.516 27.6995 16.3359ZM21.8542 21.9305C19.9587 23.3574 17.6116 24.0518 15.2448 23.8857C12.8781 23.7196 10.6509 22.7043 8.97325 21.0267C7.29558 19.349 6.28029 17.1219 6.11422 14.7551C5.94816 12.3883 6.6425 10.0412 8.06946 8.1457C8.82032 7.1525 9.75087 6.309 10.8128 5.65898C10.7917 5.95898 10.7812 6.26016 10.7812 6.5625C10.7849 9.918 12.1195 13.135 14.4922 15.5077C16.8649 17.8804 20.0819 19.215 23.4374 19.2188C23.7398 19.2188 24.0409 19.2082 24.3409 19.1871C23.6912 20.2493 22.8477 21.1799 21.8542 21.9305Z" fill="#141414"/>
</svg>
