<svg width="30" height="30" viewBox="0 0 30 30" fill="none" xmlns="http://www.w3.org/2000/svg">
<path d="M14.0625 4.6875V3.75C14.0625 3.50136 14.1613 3.2629 14.3371 3.08709C14.5129 2.91127 14.7514 2.8125 15 2.8125C15.2486 2.8125 15.4871 2.91127 15.6629 3.08709C15.8387 3.2629 15.9375 3.50136 15.9375 3.75V4.6875C15.9375 4.93614 15.8387 5.1746 15.6629 5.35041C15.4871 5.52623 15.2486 5.625 15 5.625C14.7514 5.625 14.5129 5.52623 14.3371 5.35041C14.1613 5.1746 14.0625 4.93614 14.0625 4.6875ZM22.5 15C22.5 16.4834 22.0601 17.9334 21.236 19.1668C20.4119 20.4001 19.2406 21.3614 17.8701 21.9291C16.4997 22.4968 14.9917 22.6453 13.5368 22.3559C12.082 22.0665 10.7456 21.3522 9.6967 20.3033C8.6478 19.2544 7.9335 17.918 7.64411 16.4632C7.35472 15.0083 7.50325 13.5003 8.0709 12.1299C8.63856 10.7594 9.59985 9.58809 10.8332 8.76398C12.0666 7.93987 13.5166 7.5 15 7.5C16.9885 7.50217 18.8949 8.29305 20.3009 9.6991C21.707 11.1051 22.4978 13.0115 22.5 15ZM20.625 15C20.625 13.8875 20.2951 12.7999 19.677 11.8749C19.0589 10.9499 18.1804 10.2289 17.1526 9.80318C16.1248 9.37744 14.9938 9.26604 13.9026 9.48308C12.8115 9.70013 11.8092 10.2359 11.0225 11.0225C10.2359 11.8092 9.70013 12.8115 9.48308 13.9026C9.26604 14.9938 9.37744 16.1248 9.80318 17.1526C10.2289 18.1804 10.9499 19.0589 11.8749 19.677C12.7999 20.2951 13.8875 20.625 15 20.625C16.4914 20.6234 17.9212 20.0303 18.9758 18.9758C20.0303 17.9212 20.6234 16.4914 20.625 15ZM6.83672 8.16328C7.01263 8.33919 7.25122 8.43802 7.5 8.43802C7.74878 8.43802 7.98737 8.33919 8.16328 8.16328C8.33919 7.98737 8.43802 7.74878 8.43802 7.5C8.43802 7.25122 8.33919 7.01263 8.16328 6.83672L7.22578 5.89922C7.04987 5.72331 6.81128 5.62448 6.5625 5.62448C6.31372 5.62448 6.07513 5.72331 5.89922 5.89922C5.72331 6.07513 5.62448 6.31372 5.62448 6.5625C5.62448 6.81128 5.72331 7.04987 5.89922 7.22578L6.83672 8.16328ZM6.83672 21.8367L5.89922 22.7742C5.72331 22.9501 5.62448 23.1887 5.62448 23.4375C5.62448 23.6863 5.72331 23.9249 5.89922 24.1008C6.07513 24.2767 6.31372 24.3755 6.5625 24.3755C6.81128 24.3755 7.04987 24.2767 7.22578 24.1008L8.16328 23.1633C8.25039 23.0762 8.31948 22.9728 8.36662 22.859C8.41376 22.7452 8.43802 22.6232 8.43802 22.5C8.43802 22.3768 8.41376 22.2548 8.36662 22.141C8.31948 22.0272 8.25039 21.9238 8.16328 21.8367C8.07618 21.7496 7.97277 21.6805 7.85897 21.6334C7.74516 21.5862 7.62318 21.562 7.5 21.562C7.37682 21.562 7.25484 21.5862 7.14103 21.6334C7.02723 21.6805 6.92382 21.7496 6.83672 21.8367ZM22.5 8.4375C22.6232 8.4376 22.7451 8.41343 22.8589 8.36638C22.9727 8.31933 23.0762 8.25031 23.1633 8.16328L24.1008 7.22578C24.2767 7.04987 24.3755 6.81128 24.3755 6.5625C24.3755 6.31372 24.2767 6.07513 24.1008 5.89922C23.9249 5.72331 23.6863 5.62448 23.4375 5.62448C23.1887 5.62448 22.9501 5.72331 22.7742 5.89922L21.8367 6.83672C21.7055 6.96783 21.6161 7.13495 21.5798 7.3169C21.5436 7.49885 21.5621 7.68747 21.6332 7.85887C21.7042 8.03026 21.8245 8.17673 21.9788 8.27974C22.1331 8.38274 22.3145 8.43765 22.5 8.4375ZM23.1633 21.8367C22.9874 21.6608 22.7488 21.562 22.5 21.562C22.2512 21.562 22.0126 21.6608 21.8367 21.8367C21.6608 22.0126 21.562 22.2512 21.562 22.5C21.562 22.7488 21.6608 22.9874 21.8367 23.1633L22.7742 24.1008C22.8613 24.1879 22.9647 24.257 23.0785 24.3041C23.1923 24.3513 23.3143 24.3755 23.4375 24.3755C23.5607 24.3755 23.6827 24.3513 23.7965 24.3041C23.9103 24.257 24.0137 24.1879 24.1008 24.1008C24.1879 24.0137 24.257 23.9103 24.3041 23.7965C24.3513 23.6827 24.3755 23.5607 24.3755 23.4375C24.3755 23.3143 24.3513 23.1923 24.3041 23.0785C24.257 22.9647 24.1879 22.8613 24.1008 22.7742L23.1633 21.8367ZM4.6875 14.0625H3.75C3.50136 14.0625 3.2629 14.1613 3.08709 14.3371C2.91127 14.5129 2.8125 14.7514 2.8125 15C2.8125 15.2486 2.91127 15.4871 3.08709 15.6629C3.2629 15.8387 3.50136 15.9375 3.75 15.9375H4.6875C4.93614 15.9375 5.1746 15.8387 5.35041 15.6629C5.52623 15.4871 5.625 15.2486 5.625 15C5.625 14.7514 5.52623 14.5129 5.35041 14.3371C5.1746 14.1613 4.93614 14.0625 4.6875 14.0625ZM15 24.375C14.7514 24.375 14.5129 24.4738 14.3371 24.6496C14.1613 24.8254 14.0625 25.0639 14.0625 25.3125V26.25C14.0625 26.4986 14.1613 26.7371 14.3371 26.9129C14.5129 27.0887 14.7514 27.1875 15 27.1875C15.2486 27.1875 15.4871 27.0887 15.6629 26.9129C15.8387 26.7371 15.9375 26.4986 15.9375 26.25V25.3125C15.9375 25.0639 15.8387 24.8254 15.6629 24.6496C15.4871 24.4738 15.2486 24.375 15 24.375ZM26.25 14.0625H25.3125C25.0639 14.0625 24.8254 14.1613 24.6496 14.3371C24.4738 14.5129 24.375 14.7514 24.375 15C24.375 15.2486 24.4738 15.4871 24.6496 15.6629C24.8254 15.8387 25.0639 15.9375 25.3125 15.9375H26.25C26.4986 15.9375 26.7371 15.8387 26.9129 15.6629C27.0887 15.4871 27.1875 15.2486 27.1875 15C27.1875 14.7514 27.0887 14.5129 26.9129 14.3371C26.7371 14.1613 26.4986 14.0625 26.25 14.0625Z" fill="white"/>
</svg>
